# xmcd
#
# Track frame offsets:
#	150
#	20403
#	40084
#	53649
#	74862
#	99563
#	118402
#	131655
#	155884
#	177955
#	196557
#	213114
#
# Disc length: 3072 seconds
#
# Revision: 2
# Processed by: cddbd v1.5.2PL0 Copyright (c) Steve Scherf et al.
# Submitted via: audiograbber 1.83.01
#
DISCID=ac0bfe0c
DTITLE=Jamie Scott and The Town - Park Bench Theories
DYEAR=2007
DGENRE=
TTITLE0=Runaway Train
TTITLE1=When Will I See Your Face Again
TTITLE2=London Town
TTITLE3=Changes
TTITLE4=Shadows
TTITLE5=Standing In The Rain
TTITLE6=Love Song To Remember
TTITLE7=Weeping Willow
TTITLE8=Two Men
TTITLE9=Rise Up
TTITLE10=Hey You
TTITLE11=Lady West
EXTD=
EXTT0=
EXTT1=
EXTT2=
EXTT3=
EXTT4=
EXTT5=
EXTT6=
EXTT7=
EXTT8=
EXTT9=
EXTT10=
EXTT11=
PLAYORDER=
